PathFileType	4	(X/Y/Z)	C:/Users/beibeiliu/ov580/test_trc/capture2\sequence.2_training_dense_left.trc
DataRate	CameraRate	NumFrames	NumMarkers	Units	OrigDataRate	OrigDataStartFrame	OrigNumFrames
120	120	13	19	mm	120	118	313
Frame#	Time	ThumbCMC			ThumbMCP			ThumbIP			ThumbTip			IndexMCP			IndexPIP			IndexTip			MiddleMCP			MiddlePIP			MiddleTip			RingMCP			RingPIP			RingTip			PinkyMCP			PinkyPIP			PinkyTip			BackHand1			BackHand2			BackHand3	
		X0	Y0	Z0	X1	Y1	Z1	X2	Y2	Z2	X3	Y3	Z3	X4	Y4	Z4	X5	Y5	Z5	X6	Y6	Z6	X7	Y7	Z7	X8	Y8	Z8	X9	Y9	Z9	X10	Y10	Z10	X11	Y11	Z11	X12	Y12	Z12	X13	Y13	Z13	X14	Y14	Z14	X15	Y15	Z15	X16	Y16	Z16	X17	Y17	Z17	X18	Y18	Z18	
117	0.975	-183.679	60.5265	-37.1448	-156.538	78.1401	-55.8227	-140.693	81.6357	-72.5211	-122.627	73.3692	-89.5431	-163.171	37.7468	-107.775	-139.401	52.3596	-120.483	-123.586	69.9899	-97.6109	-147.199	24.4172	-104.555	-119.881	41.7971	-108.449	-115.689	59.2393	-77.8146	-135.575	16.084	-95.5835	-112.638	33.2246	-98.9084	-110.972	54.1549	-69.6269	-127.432	0.492112	-77.126	-105.042	20.5039	-84.7227	-106.758	48.1301	-66.4114	-170.164	0.0636262	-56.2459	-184.849	1.93348	-24.627	-193.773	21.4677	-49.7287	
118	0.983333	-186.399	58.2561	-39.2362	-163.141	78.5144	-57.6943	-147.329	82.7945	-76.2945	-128.901	83.0873	-93.9606	-169.227	40.7986	-108.66	-144.612	57.6356	-120.968	-132.17	75.1782	-98.1765	-151.12	30.2702	-105.641	-127.871	51.2043	-111.755	-124.628	68.6712	-78.3056	-132.368	19.2537	-97.7672	-112.965	40.4775	-98.9597	-116.307	63.2772	-69.6999	-126.674	7.89303	-78.5901	-106.771	28.0716	-87.1646	-112.404	56.4956	-69.3431	-168.234	-0.349459	-52.3211	-180.546	0.180679	-23.6668	-197.226	23.8657	-46.5006	
119	0.991667	-190.622	58.4126	-39.3137	-171.477	81.8999	-58.0017	-155.568	89.0214	-78.9259	-136.544	84.8598	-95.1412	-175.996	42.7372	-105.911	-153.149	58.9111	-121.952	-141.457	80.6188	-97.0581	-152.542	31.7265	-107.245	-130.867	58.1149	-110.46	-132.345	75.7384	-77.3663	-137.658	23.3131	-98.736	-120.572	49.1143	-101.858	-120.175	68.3651	-74.7011	-128.708	14.1428	-81.2332	-110.643	36.5319	-88.3696	-119.542	62.6542	-71.0167	-167.5	1.35317	-55.7411	-177.501	0.370463	-25.2609	-197.1	19.654	-45.1524	
120	1	-197.981	60.6923	-36.7772	-178.437	79.6824	-53.819	-163.641	89.1547	-77.0711	-148.592	88.3693	-93.0572	-177.607	41.8001	-108.285	-158.495	59.2348	-120.711	-149.717	83.5365	-99.2275	-158.157	33.0425	-104.454	-138.862	61.0645	-111.853	-137.341	77.4346	-81.9025	-145.346	26.3789	-96.2423	-126.142	50.6493	-103.918	-125.899	74.5499	-75.0647	-132.319	20.0392	-84.2282	-118.002	44.1937	-92.4637	-118.986	66.864	-76.951	-168.738	3.15426	-50.6698	-177.214	2.51046	-23.1612	-200.307	22.95	-48.5877	
121	1.00833	-202.701	61.046	-37.1551	-186.033	81.8301	-53.1691	-174.047	91.4465	-78.0955	-154.582	89.5306	-99.5771	-180.859	41.347	-106.628	-164.108	60.4728	-120.546	-156.96	83.1586	-93.4676	-160.867	37.4674	-108.486	-148.086	62.4171	-115.038	-142.113	80.5131	-82.9056	-143.686	28.2557	-96.4904	-127.295	54.9206	-103.033	-130.217	77.7733	-78.2746	-133.334	20.1422	-81.6184	-118.658	44.1302	-93.9899	-121.89	71.2152	-78.623	-169.519	6.89232	-53.7949	-177.534	3.53373	-20.9485	-201.799	20.0299	-44.8186	
122	1.01667	-203.492	56.8031	-33.7067	-191.599	79.7864	-55.9621	-181.767	93.5482	-81.4855	-164.025	90.1436	-100.353	-186.278	41.4765	-108.409	-171.957	60.9554	-121.386	-166.025	84.848	-99.5175	-166.271	37.3384	-107.836	-152.925	65.5269	-114.419	-153.459	84.9144	-82.4365	-146.573	31.8122	-99.4543	-132.858	59.8033	-104.594	-135.561	80.4074	-80.4485	-134.024	24.1434	-86.8381	-124.296	47.047	-96.2881	-131.297	74.6576	-82.688	-167.697	6.47858	-54.2763	-178.321	2.58734	-21.9244	-203.801	20.837	-43.8419	
123	1.025	-209.941	59.0731	-35.9937	-197.167	81.0474	-57.9166	-187.392	90.5391	-80.6579	-172.158	92.9652	-98.8625	-194.944	42.4678	-105.581	-176.137	64.8067	-120.571	-174.219	86.4519	-93.8725	-172.323	39.1583	-107.517	-155.521	66.1238	-113.16	-158.955	85.8468	-83.3929	-155.484	32.7612	-97.2634	-139.581	61.6438	-104.99	-144.765	83.3154	-79.2594	-140.844	25.3863	-82.8869	-131.307	50.3763	-97.673	-131.572	77.328	-84.0664	-170.937	7.29148	-49.0715	-180.709	5.56468	-23.9921	-203.108	17.934	-40.2387	
124	1.03333	-211.233	57.2654	-34.529	-199.814	78.8125	-54.5673	-194.617	92.7729	-80.5783	-178.431	92.3568	-98.0095	-195.695	40.7526	-103.299	-181.141	61.6406	-119.533	-177.322	85.1442	-94.5433	-177.905	39.2983	-106.131	-160.948	68.2832	-113.094	-163.659	86.9222	-83.2288	-156.363	33.5209	-97.2691	-146.449	61.619	-107.279	-153.353	84.9732	-79.4495	-140.904	27.1083	-82.8206	-134.795	53.5285	-98.1579	-139.64	81.1229	-84.11	-174.922	9.4673	-52.3926	-179.548	4.78096	-19.7166	-204.762	19.9388	-38.49	
125	1.04167	-214.819	56.5767	-32.7686	-206.75	81.3053	-51.427	-200.7	93.0408	-76.5514	-185.213	92.7602	-97.813	-201.483	40.6096	-101.407	-189.777	63.566	-120.643	-183.421	86.7573	-94.025	-179.392	41.4726	-108.279	-166.552	69.4107	-113.307	-167.701	87.6945	-81.0438	-158.417	35.7825	-98.4583	-153.579	68.665	-106.075	-155.539	87.0989	-78.2145	-144.1	30.5743	-82.9308	-139.102	55.8404	-100.182	-143.501	83.2727	-85.8993	-171.787	10.2592	-50.4594	-178.674	6.8576	-22.0273	-205.52	19.3514	-38.424	
126	1.05	-216.996	56.1378	-30.8792	-209.541	77.8974	-49.2998	-206.566	92.1703	-78.4839	-190.811	92.4344	-97.8162	-204.129	40.682	-104.632	-194.829	64.3783	-118.868	-188.216	86.4116	-90.1176	-182.303	37.859	-102.642	-176.04	67.2469	-116.143	-174.515	89.5666	-85.9695	-161.224	38.5994	-101.525	-156.961	66.9276	-105.767	-161.839	86.6899	-80.9362	-145.285	31.3557	-83.6951	-144.319	54.3653	-100.968	-149.756	84.4004	-86.8899	-173.885	10.0343	-51.7079	-178.002	9.47151	-16.7544	-204.241	16.2412	-39.2304	
127	1.05833	-218.574	54.5318	-28.8027	-214.525	81.1909	-48.8694	-208.474	89.8676	-74.4712	-193.897	92.6973	-100.801	-204.922	39.3403	-101.787	-199.343	62.7767	-117.429	-192.567	87.043	-90.5046	-188.405	40.0877	-106.06	-178.746	68.677	-114.091	-176.978	89.4563	-83.2807	-166.608	37.8037	-100.125	-159.64	65.6211	-106.626	-169.502	86.9846	-79.0994	-147.726	32.8131	-84.5853	-143.387	57.5389	-100.846	-154.527	86.0267	-88.6513	-175.797	11.2871	-45.6433	-177.745	8.11071	-20.2153	-203.626	15.868	-37.9291	
128	1.06667	-218.113	53.9979	-26.2969	-214.8	79.5902	-47.6904	-211.035	89.7101	-74.511	-198.886	92.8676	-95.7926	-208.182	35.8691	-96.8019	-201.466	61.1375	-116.017	-198.786	84.4356	-96.4998	-188.473	37.5813	-104.677	-182.913	66.4383	-115.293	-177.847	86.8276	-85.2307	-168.393	35.6899	-100.9	-163.603	62.1631	-108.631	-170.499	85.0234	-80.2787	-153.212	31.1188	-82.6533	-147.612	56.1978	-102.245	-159.875	84.6587	-89.8018	-174.79	11.3583	-46.8305	-176.264	7.86689	-15.4447	-207.033	15.5951	-31.62	
129	1.075	-218.956	54.0411	-25.1189	-214.197	77.4153	-47.7738	-212.721	87.1325	-76.6971	-201.617	87.7803	-93.8477	-215.466	33.0882	-93.6946	-206.685	58.3713	-115.238	-200.975	80.9275	-96.8939	-190.375	31.1182	-100.63	-185.868	61.2264	-114.32	-180.356	83.771	-86.9928	-171.729	30.5794	-98.9756	-166.154	58.0992	-109.341	-170.444	80.447	-83.5925	-154.142	25.4822	-84.0533	-153.759	49.07	-104.006	-161.684	79.8165	-94.3991	-177.439	8.24102	-44.0834	-179.515	7.38776	-14.25	-209.517	16.2096	-31.3159	
